<?xml version="1.0" standalone="no"?>
<!DOCTYPE svg PUBLIC "-//W3C//DTD SVG 20010904//EN"
 "http://www.w3.org/TR/2001/REC-SVG-20010904/DTD/svg10.dtd">
<svg version="1.0" xmlns="http://www.w3.org/2000/svg"
 width="512.000000pt" height="512.000000pt" viewBox="0 0 512.000000 512.000000"
 preserveAspectRatio="xMidYMid meet">
<metadata>
Created by potrace 1.14, written by Peter Selinger 2001-2017
</metadata>
<g transform="translate(0.000000,512.000000) scale(0.100000,-0.100000)"
fill="#000000" stroke="none">
<path d="M707 4413 c-1 -1 -1 -834 1 -1852 l2 -1851 1850 0 1850 0 0 1845 c0
1015 0 1847 0 1850 0 4 -3699 13 -3703 8z m3293 -513 l0 -310 -65 0 -65 0 0
310 0 310 65 0 65 0 0 -310z m-2707 278 c2 -7 30 -80 62 -163 32 -82 61 -154
65 -158 4 -5 24 36 45 90 21 54 50 130 65 168 l28 70 70 3 71 3 5 -33 c3 -18
16 -153 29 -300 l23 -268 -67 0 -66 0 -6 58 c-4 31 -10 104 -13 162 -4 58 -9
110 -13 117 -3 7 -33 -66 -66 -162 l-60 -175 -41 0 -41 0 -58 168 c-31 92 -60
171 -64 175 -4 4 -14 -71 -21 -168 l-13 -175 -69 0 -69 0 5 43 c3 23 15 152
27 287 11 135 22 251 24 258 3 8 27 12 74 12 46 0 70 -4 74 -12z m2047 -8 c57
-57 -9 -153 -85 -124 -24 10 -46 60 -39 89 13 53 86 73 124 35z m-950 -140 l0
-70 40 0 40 0 0 -50 0 -50 -40 0 -40 0 0 -74 c0 -77 11 -100 46 -94 13 2 21
-8 31 -42 12 -40 11 -46 -4 -57 -9 -7 -43 -13 -76 -13 -52 0 -62 3 -87 30 -33
35 -40 66 -40 171 0 78 0 79 -25 79 -23 0 -25 3 -25 50 0 47 2 50 25 50 24 0
25 2 25 70 l0 70 65 0 65 0 0 -70z m-375 -80 c47 -24 45 -24 45 -5 0 12 14 15
65 15 l65 0 0 -185 0 -185 -65 0 c-58 0 -65 2 -65 20 0 18 -2 18 -36 -5 -27
-19 -50 -25 -88 -25 -102 0 -173 69 -183 176 -13 152 133 260 262 194z m775
-14 c46 -30 68 -68 77 -131 l6 -45 -137 0 c-128 0 -136 -1 -136 -20 0 -54 98
-80 150 -41 24 19 25 19 65 -1 53 -27 52 -24 24 -54 -37 -41 -96 -64 -165 -64
-81 0 -139 30 -178 93 -64 103 -21 230 94 282 53 23 150 14 200 -19z m488 24
l72 1 0 -185 0 -186 -65 0 -65 0 0 178 -1 177 -27 -52 c-21 -41 -30 -50 -42
-43 -17 11 -61 13 -85 4 -32 -13 -45 -59 -45 -164 l0 -100 -60 0 -60 0 0 185
0 185 60 0 c58 0 60 -1 60 -27 l0 -26 23 20 c40 37 60 44 112 38 28 -3 83 -5
123 -5z m370 -10 c34 -16 42 -16 42 -5 0 12 15 15 65 15 l65 0 0 -185 0 -185
-65 0 c-51 0 -65 3 -65 15 0 20 -9 19 -32 -2 -29 -26 -134 -29 -178 -5 -55 30
-91 89 -97 158 -4 51 -1 66 24 113 48 93 144 125 241 81z m-1496 -692 l3 -243
103 -3 102 -3 0 -59 0 -60 -170 0 -170 0 0 305 0 305 65 0 65 0 2 -242z m347
232 c31 -16 45 -64 29 -97 -27 -56 -109 -57 -132 -1 -17 39 -11 63 22 88 27
22 54 25 81 10z m551 -150 l0 -70 40 0 40 0 0 -50 0 -50 -40 0 -40 0 0 -74 c0
-77 11 -100 46 -94 25 4 55 -89 33 -102 -29 -19 -95 -22 -132 -7 -53 23 -70
63 -75 180 -4 94 -5 97 -28 97 -19 0 -23 6 -26 38 l-3 37 -20 -38 c-15 -30
-22 -36 -39 -30 -12 4 -39 8 -61 8 -29 0 -40 -4 -43 -17 -2 -12 12 -22 58 -39
77 -28 110 -65 110 -123 0 -70 -41 -107 -132 -121 -54 -8 -132 7 -165 33 l-22
17 25 42 25 42 39 -20 c45 -24 93 -22 98 3 2 13 -14 25 -61 46 -73 34 -97 61
-97 113 0 93 126 146 245 104 24 -9 41 -11 43 -5 2 6 15 10 28 10 23 0 24 3
24 63 0 35 3 67 7 70 3 4 33 7 65 7 l58 0 0 -70z m-530 -260 l0 -191 -62 3
-63 3 -1 180 c0 99 1 183 3 188 2 4 31 7 64 7 l59 0 0 -190z m-1355 -294 c28
-13 61 -35 74 -50 l25 -26 -40 -42 c-21 -24 -40 -45 -42 -47 -1 -3 -15 7 -30
22 -109 104 -262 22 -262 -141 0 -65 20 -112 66 -152 28 -24 44 -30 82 -30 71
0 132 46 132 101 0 5 -31 9 -70 9 l-70 0 0 55 0 55 140 0 140 0 0 -47 0 -47
26 41 c107 165 360 117 376 -72 l3 -40 -137 -3 c-76 -1 -138 -7 -138 -12 0 -5
11 -21 24 -37 20 -22 32 -28 65 -27 23 1 50 9 60 18 23 21 33 20 83 -5 l42
-21 -41 -39 c-74 -69 -196 -79 -276 -23 -46 33 -86 95 -87 134 -1 21 -4 19
-22 -18 -28 -58 -100 -119 -161 -137 -145 -43 -278 13 -352 146 -27 49 -30 62
-30 149 0 80 4 103 24 144 30 62 90 122 144 147 63 28 187 26 252 -5z m2365
-136 l0 -70 40 0 40 0 0 -50 0 -50 -40 0 -40 0 0 -69 c0 -88 5 -101 40 -101
24 0 29 -6 40 -46 17 -60 7 -69 -74 -69 -105 0 -136 45 -136 195 0 89 0 90
-25 90 -23 0 -25 3 -25 50 0 47 2 50 25 50 24 0 25 2 25 63 0 35 3 67 7 70 3
4 33 7 65 7 l58 0 0 -70z m-1497 -71 c21 -5 52 -23 70 -39 l32 -28 3 -156 3
-156 -65 0 -65 0 -3 126 c-3 122 -4 128 -28 146 -22 16 -30 17 -58 7 -18 -6
-37 -19 -42 -29 -6 -10 -10 -71 -10 -134 l0 -116 -65 0 -65 0 0 190 0 190 61
0 c52 0 62 -3 66 -20 5 -19 6 -19 32 -1 47 33 73 37 134 20z m394 -1 c66 -16
118 -71 132 -138 6 -28 9 -56 5 -61 -3 -5 -66 -9 -140 -9 -77 0 -134 -4 -134
-9 0 -6 11 -22 24 -38 20 -22 32 -28 65 -27 23 1 50 9 60 18 23 21 33 20 83
-5 l42 -21 -41 -39 c-102 -95 -273 -72 -340 46 -26 46 -30 119 -9 168 27 64
116 125 184 127 13 0 44 -5 69 -12z m477 -8 c6 -6 1 -29 -14 -60 -23 -49 -24
-50 -61 -44 -91 15 -109 -12 -109 -161 l0 -105 -65 0 -65 0 0 190 0 191 62 -3
c56 -3 63 -5 68 -27 5 -22 6 -23 20 -6 25 30 71 46 115 40 22 -4 44 -10 49
-15z m257 -4 c39 -20 39 -20 39 -1 0 13 11 15 63 13 l62 -3 3 -187 2 -188 -65
0 c-59 0 -65 2 -65 20 0 20 0 20 -29 -1 -18 -13 -50 -24 -80 -27 -103 -10
-187 63 -198 172 -17 160 130 271 268 202z m729 13 c98 -22 160 -95 160 -188
0 -67 -19 -110 -64 -148 -87 -71 -231 -72 -312 -1 -48 42 -67 83 -67 143 0 95
55 165 151 191 58 16 76 16 132 3z m479 0 c37 -13 37 -16 9 -73 l-21 -44 -52
5 c-44 5 -56 2 -74 -16 -19 -19 -21 -32 -21 -136 l0 -115 -65 0 -65 0 0 190 0
191 62 -3 c56 -3 63 -5 68 -27 5 -22 6 -23 20 -6 16 20 66 44 91 45 9 0 30 -5
48 -11z m-2008 -936 c34 -37 39 -48 39 -89 0 -39 -5 -51 -33 -79 l-33 -33 29
-17 c57 -34 74 -127 34 -185 -65 -98 -239 -107 -326 -18 -29 30 -30 33 -14 50
22 24 32 23 64 -8 103 -99 297 6 206 112 -19 22 -34 28 -81 32 -55 4 -57 6
-54 31 3 23 8 27 50 31 61 7 88 32 88 81 0 51 -35 79 -99 79 -53 0 -86 -23
-97 -65 -5 -19 -13 -25 -35 -25 -25 0 -29 4 -29 28 0 38 32 85 71 105 25 13
53 17 107 15 72 -3 75 -4 113 -45z m604 24 c158 -89 143 -424 -22 -493 -41
-18 -114 -18 -156 0 -37 15 -93 75 -108 115 -55 144 -13 327 88 380 54 29 145
28 198 -2z m-400 -472 c0 -23 -5 -31 -21 -33 -27 -4 -47 21 -39 48 5 16 14 20
33 18 23 -2 27 -8 27 -33z"/>
<path d="M1916 3839 c-37 -29 -37 -95 -1 -129 57 -53 145 -13 145 66 0 73 -84
110 -144 63z"/>
<path d="M2626 3869 c-14 -11 -26 -25 -26 -30 0 -5 32 -9 70 -9 76 0 91 14 48
44 -31 22 -60 20 -92 -5z"/>
<path d="M3545 3835 c-35 -34 -34 -93 0 -125 56 -53 145 -15 145 62 0 79 -90
119 -145 63z"/>
<path d="M1467 2482 c-31 -34 -21 -42 53 -42 74 0 83 7 50 40 -26 26 -81 26
-103 2z"/>
<path d="M2317 2482 c-31 -34 -21 -42 53 -42 74 0 83 7 50 40 -26 26 -81 26
-103 2z"/>
<path d="M3090 2473 c-62 -23 -81 -103 -35 -148 52 -53 144 -14 145 62 0 54
-63 104 -110 86z"/>
<path d="M3787 2464 c-53 -29 -61 -91 -18 -135 35 -35 77 -38 114 -9 53 42 39
127 -24 149 -39 14 -38 14 -72 -5z"/>
<path d="M2797 1612 c-46 -28 -67 -86 -67 -183 1 -138 43 -202 135 -202 92 0
134 64 135 202 0 137 -44 201 -137 201 -21 0 -51 -8 -66 -18z"/>
</g>
</svg>
